<svg xmlns="http://www.w3.org/2000/svg" width="200" height="36" viewBox="0 0 200 36">
    <g fill="#86B7A4" fill-rule="evenodd">
        <path d="M35.228 13.782c-.039-.64.711-2.148 1.124-2.258-.31.785-.722 1.487-1.124 2.258M19.7 18.839c.84-1.256 1.622-2.512 3.01-3.352-.306 1.098-2.143 3.122-3.01 3.352m19.074 6.64c-.177.009-1.018-.706-1.104-.987-.19-.622-.253-1.267-.116-1.9.236-1.093.287-2.223.821-3.256.32-.616.367-1.363.842-1.923.038-.045-.349-.831-.604-1.125-.465-.538-.999-.9-1.674-1.055-.612-.141-.68-.256-.377-.788.055-.095.11-.19.162-.285.68-1.25 1.107-2.568 1.092-4.01-.003-.278-.087-.502-.314-.668-.295-.218-.598-.428-.88-.662-.126-.104-.194-.032-.285.02-1.106.64-1.834 1.654-2.507 2.684-.376.573-.464 1.298-.537 1.995-.048.465.1.92.396 1.187.38.342.29.57.054.879-.115.152-.224.308-.347.454-.9 1.07-1.969 1.964-3.016 2.88-.459.402-.986.738-1.39 1.187-.743.825-1.638 1.424-2.682 1.697-1.033.27-1.3-.08-1.43-.958a3.108 3.108 0 0 1-.02-.61c.063-1.15.457-2.204.945-3.228.274-.577.582-1.138.763-1.754.342-1.164.058-1.603-1.162-2.025-.263-.092-.558-.083-.85-.064-.272.019-.413.149-.53.365-.403.73-.404.728-1.174.327-.24-.125-.487-.266-.77-.143-.747.32-1.432.763-2.145 1.146-1.484.796-2.29 2.207-3.04 3.643-.042.079-.07.16-.039.233.172.395-.07.613-.354.782-.329.196-.61.46-.932.658-.78.477-1.424 1.156-2.277 1.522-.098.043-.184.115-.278.168a5.746 5.746 0 0 1-1.624.629c-.2.043-3.55.697-5.032.197-1.14-.386-1.942-.695-1.978-2.391-.028-1.381.521-5.33.711-5.741.142-.308.237-.635.351-.954.17-.476.157-.993.377-1.456.435-.917.92-1.808 1.365-2.722C8.341 7.05 10.188 5.312 12.48 4.03a2.822 2.822 0 0 1 1.05-.318c.321-.04.648.022.79.353.09.21.243.346.365.518.27.384.574.763.715 1.216.17.544.33 1.1.352 1.674.03.769.19 1.563-.215 2.287-.184.329-.093.54.191.717.15.094.305.179.465.254.398.185.57.129.733-.281.561-1.392.908-2.822.743-4.34-.259-2.38-2.44-4.74-5.63-4.002-1.57.363-2.903 1.206-4.222 2.077-.157.104-.298.24-.43.377-.517.539-1.326 1.882-1.4 1.99a4.944 4.944 0 0 1-.468.617c-.446.483-1.864 2.575-1.82 2.67-.396.665-1.494 2.912-1.51 3.052-.444.78-1.606 3.526-1.635 3.665-.15.137-.722 3.426-.506 4.147.296.989.653 1.962 1.33 2.776.102.123.17.279.235.427.067.152.195.25.29.372.278.362.693.48 1.056.697.561.337 1.131.646 1.77.808 1.405.357 2.802.439 4.195-.09.38-.144.744-.35 1.12-.456.391-.112.758-.272 1.121-.43 1.906-.828 3.485-2.12 4.94-3.578.231-.231.49-.436.743-.642.07-.056.153-.168.272-.03.446.525 1.093.625 1.708.79.485.132.911.016 1.291-.31.387-.328.711-.712 1.02-1.113.16-.21.292-.588.553-.515.227.063.127.457.156.706.162 1.422.846 2.273 2.128 2.562.463.105.944.146 1.42.176 1.55.099 2.876-.454 4.07-1.407a15.668 15.668 0 0 0 2.228-2.148c.148-.176.24-.392.442-.53a11.933 11.933 0 0 0 2.934-2.78c.062-.083.137-.228.252-.133.247.205.571.25.823.44.172.129.241.254.136.48-.3.644-.493 1.327-.632 2.02-.385 1.922-.688 3.84.114 5.749.21.498.522.854.987 1.087.592.296 1.227.368 1.872.259.312-.052.617-.168.86-.451-.269-.087-.485.029-.708.04M68.036 18.853c.78-1.265 1.551-2.538 2.925-3.255-.688 1.345-1.63 2.459-2.925 3.255M46.852 18.8c-.078.106-.142.095-.235.05-.187-.087-.369-.196-.49-.358-.388-.523-.895-.99-.89-1.72 0-.122-.036-.234.131-.293.364-.127.461-.47.135-.615-.52-.23-.412-.63-.444-1.007-.014-.176-.087-.326-.17-.483 1.08-.13 2.381.847 2.52 1.81.134.927.018 1.825-.557 2.616m-2.712 2.322c-.595.216-1.074-.192-1.073-.83.003-.933.226-1.803.765-2.578.183-.263.326-.355.534.009.447.786 1.091 1.387 1.9 1.82-.496.83-1.278 1.27-2.126 1.579M61.63 5.168c.59-1.038 1.366-1.93 2.105-2.852.134-.167.363-.43.543-.288.185.144-.073.385-.166.57-.2.4-.43.789-.617 1.196-.843 1.849-1.799 3.629-3.127 5.186-.306.359-.589.738-.894 1.099-.118.14-.23.305-.488.353.84-1.81 1.68-3.566 2.644-5.264m19.272 12.14c-.262-.227-.477.05-.662.21-.835.725-1.66 1.46-2.492 2.189-.16.142-.363.243-.499.403-.73.855-1.672 1.389-2.715 1.726-.772.249-1.27-.121-1.379-.92a3.638 3.638 0 0 1-.027-.692c.068-1.148.46-2.204.95-3.226.276-.577.581-1.14.763-1.755.35-1.182.01-1.63-1.216-2.027-.266-.086-.56-.077-.852-.046-.22.023-.343.123-.445.298-.149.256-.203.694-.459.728-.256.033-.552-.242-.83-.381-.223-.11-.445-.207-.7-.1-.737.312-1.404.756-2.108 1.129-1.5.794-2.316 2.218-3.069 3.669-.023.046-.054.109-.04.152.064.215-.092.273-.227.368-1.816 1.274-3.698 2.46-5.296 4.025a9.482 9.482 0 0 1-1.562 1.25c-.279.177-.518.15-.69-.13-.346-.561-.769-1.081-.93-1.745-.09-.374-.41-2.402-.217-3.02.405-1.296.443-2.666.925-3.96.39-1.043 1.092-1.836 1.681-2.72.137-.207.24-.47.441-.632.541-.44.963-.992 1.411-1.513.782-.91 1.515-1.861 2.273-2.792 1.464-1.8 2.117-3.89 2.272-6.176.047-.681-.075-1.126-.799-1.351-.599-.186-1.15-.548-1.685.107-.143.177-1.976 1.628-2.578 2.366-.448.55-.966 1.035-1.379 1.625-.504.72-.897 1.51-1.456 2.199-.525.648-1.05 1.33-1.397 2.08-.516 1.12-.955 2.278-1.44 3.414-.716 1.67-1.043 3.456-1.42 5.224-.125.59-.416 1.05-1.025 1.246-.61.196-1.225.37-1.86.453a3.14 3.14 0 0 1-1.177-.07c.161-.364.346-.688.452-1.036.325-1.074.505-2.067-.409-3.064-.705-.77-1.505-1.118-2.455-1.29-.937-.168-1.88-.07-2.82-.026-.154.006-.39-.09-.393.208 0 .229-.028.473.328.488.26.012.387.135.168.38-.138.155-.02.507-.315.51-.636.009-.84.47-1.038.932a7.236 7.236 0 0 1-.385.799c-.273.473-.532.994-.65 1.506-.486 2.096.892 3.526 2.206 4.214a.774.774 0 0 0 .313.074c.69.04 1.386-.012 1.99-.345.794-.438 1.542-.961 2.086-1.717.262-.362.524-.695 1.063-.496.155.057.355.025.527-.006 1.163-.208 2.311-.471 3.4-1.005.035.279.067.545.103.812.12.916.133 1.86.562 2.704.392.772.83 1.52 1.272 2.264.136.23.345.43.587.557 1.564.819 3.106.848 4.652-.086 1.26-.76 2.093-1.934 3.05-2.992.298-.33.423-.79.735-1.076.366-.335.707-.715 1.17-.957.302.602.9.777 1.501.987.805.282 1.454.12 2.028-.503.352-.382.652-.804.985-1.2.068-.081.133-.2.257-.171.141.032.102.175.118.275.022.149.03.299.045.449.153 1.442.855 2.307 2.152 2.586 2.018.434 3.87.11 5.484-1.258.404-.343.791-.703 1.188-1.051.783-.687 1.364-1.518 1.883-2.401.116-.197.295-.476.075-.67M95.345 17.572c-.205.028-.317.124-.312.299.032 1.049-.474 1.999-.541 3.035-.032.499.092 4.347-.113 4.36-.228.015-.547.098-.758-.173-.348-.445-.486-.97-.571-1.505a12.41 12.41 0 0 1-.059-3.523c.121-.988-.014-1.997.168-2.986.036-.186-.084-.291-.229-.39a2.3 2.3 0 0 1-.799-.943c.092-.027.14-.054.188-.054.94.016.959.019 1.1-.907.233-1.523.525-3.035.858-4.54.069-.31.005-.371-.292-.372-.617-.001-1.235-.066-1.851-.052-.747.016-1.275-.31-1.684-.907-.162-.238-.362-.45-.601-.74.946.19 1.641-.323 2.383-.643 2.297-.991 4.584-2.03 7.049-2.522 2.623-.523 5.229-.385 7.753.583.726.279 1.126.768 1.064 1.227-.158 1.156-.431 1.46-1.542 1.676.084-.137.15-.25.222-.358.209-.318.093-.517-.244-.601-.497-.125-1.014-.195-1.512-.088-1.711.369-3.406.79-5.012 1.517-.677.306-1.347.627-2.142.59-.342-.015-.657.196-.693.679-.059.789-.443 1.483-.79 2.179-.316.635-.637 1.947-.592 2.48 1.653-.331 3.31-.613 4.996-.67 1.893-.065 3.732.135 5.403 1.124.201.12.542.122.474.535-.069.429-.382.378-.656.39-1.106.05-2.214.073-3.318.135-1.116.062-2.242.018-3.339.285-.113.009-2.754.708-4.008.88M129.803 18.192c-.444.25-.532.671-.77.979-.65.842-1.224 1.744-1.885 2.577-.396.499-.84 1.011-1.629.807-.3-.077-.466-.219-.552-.513-.219-.744-.095-1.484.052-2.207.252-1.24.573-2.465.854-3.699.077-.337.399-.583.319-.983-.028-.136.181-.176.295-.168.433.032.87.097 1.26.298.346.178.233.504.153.772-.208.7-.209 1.423-.339 2.129.215.043.298-.049.39-.177.824-1.132 1.958-1.937 3.042-2.777.379-.294.999-.12 1.471-.017.4.086.334.569.372.928.148 1.419-.475 2.691-.768 4.021-.217.981-.627 1.914-.748 2.928-.088.741.212 1.283.964 1.435.43.086.222.36.116.439-.226.168-.457.393-.801.313-1.496-.346-2.195-1.142-2.383-2.687-.158-1.294.005-2.566.441-3.8.06-.167.085-.346.146-.598M137.229 13.288c.684.188 1.176-.103 1.636-.34 1.505-.779 3.074-1.33 4.749-1.59.39-.06.388-.074.76.048-.906.95-1.961 1.71-3.172 2.201-.868.353-1.81.512-2.747.54-.525.016-.965-.24-1.226-.859M189.333 30.099c-1.088 1.598-2.464 2.922-4.045 4.1 1.134-3.777 3.36-6.808 6.372-9.318-.065.802-1.446 3.925-2.327 5.218m-27.459-11.772c-1.085 1.059-1.899 2.37-3.119 3.307-.46.354-.9.723-1.514.908.06-.526.232-.96.458-1.422.471-.96 1.21-1.657 1.958-2.36.365-.342.777-.64 1.18-.941.188-.143.425-.216.66-.22.221-.003.437.085.537.299.08.173-.042.314-.16.429m15.212-1.523c.137-.093.31-.361.492-.15.141.163-.006.388-.155.52-.657.58-1.34 1.129-2.119 1.567.493-.742 1.04-1.436 1.782-1.937m22.861 1.779c-.144-.133-.28.007-.389.076-.397.25-.783.518-1.165.788-1.185.837-2.37 1.672-3.543 2.523-.26.189-.38.189-.468-.144-.199-.76-.716-1.297-1.35-1.696-.329-.205-.335-.398-.193-.676.303-.593.422-1.201.311-1.876-.117-.713-.122-1.425-.926-1.808-.66-.314-1.29-.684-2.053-.57-1.343.2-2.719.287-3.917 1.038-.839.527-1.78.865-2.54 1.544-.663.59-1.258 1.27-1.947 1.798a10.432 10.432 0 0 1-4.05 1.895c-.793.18-1.593.36-2.41.086-.364-.122-.604-.314-.633-.714-.027-.357.001-.635.41-.828.564-.267 1.087-.63 1.616-.97.81-.52 1.583-1.083 2.233-1.805.501-.558.486-1.107-.084-1.595-.497-.425-1.128-.59-1.717-.816-.71-.274-1.284.119-1.858.495-.98.643-1.746 1.524-2.167 2.564-.34.84-.668 1.543-1.42 2.12-1.71 1.309-3.26 2.83-5.215 3.807-.357.178-.707.367-1.097.458-.438.1-.774.023-.944-.47-.137-.394-.268-.784-.313-1.201a8.37 8.37 0 0 1 .704-4.388c.432-.961.723-1.984 1.374-2.85.433-.574.801-1.207 1.117-1.854.498-1.016.93-2.063 1.382-3.1.858-1.956 2.078-3.717 3.025-5.628.325-.656.273-1.157-.398-1.467-.197-.091-.402-.164-.594-.263-.443-.228-.737-.076-.894.359-.25.692-.686 1.269-1.099 1.864-1.424 2.049-3.005 3.998-4.03 6.305-.512 1.153-.918 2.339-1.29 3.54-.106.345-.296.662-.266 1.04.014.174-.034.335-.199.416-.179.088-.316-.035-.438-.137-.278-.234-.533-.494-.817-.72-.787-.631-1.334-.636-2.027.067-.32.326-.776.475-.988.977-.163.388-.694.575-1.059.838-1.454 1.048-1.723 2.614-1.98 4.2-.033.193-.008.399.016.597.1.8 1.203 1.532 1.94 1.238 1.372-.55 2.658-1.251 3.682-2.356.153-.164.323-.433.572-.321.183.083.067.362.075.55.052 1.134.197 2.225 1.188 2.983.056.043.094.11.132.172.412.659 1.545 1.089 2.31.896 1.15-.29 2.131-.913 3.078-1.583 1.145-.81 2.062-1.9 3.227-2.696.495-.338.931-.373 1.198.155.436.868 1.24 1.004 2.033 1.258 1.26.402 2.441.052 3.612-.307a7.657 7.657 0 0 0 2.258-1.122c1.243-.9 2.32-2.023 3.713-2.724a84.85 84.85 0 0 0 2.918-1.554c.85-.471 1.714-.87 2.526-.842.931-.021 1.065.048 1.053.474-.029 1.149-.677 2.044-1.254 2.96-.274.438-.834.268-1.229.469-.079.04-.168.063-.254.09-1.234.417-2.217 1.209-3.153 2.079-.1.095-.186.352-.37.204-.135-.108-.208-.282-.33-.034-.13.26-.569.385-.38.789.334.71 1.85 1.362 2.624 1.12.581-.182 1.153-.395 1.732-.586.561-.184 1.018-.547 1.45-.918.623-.54 1.188-1.145 1.772-1.73.148-.147.29-.092.45-.05.158.043.267.102.25.29-.104 1.072-.093 2.124-1.145 2.889a19.287 19.287 0 0 0-5.607 6.382c-.594 1.079-1.14 2.182-1.26 3.44-.035.37.01.73.264.99.648.658 1.572.757 2.408.329 1.846-.945 3.222-2.43 4.305-4.12.917-1.43 1.9-2.856 2.44-4.508.295-.908.818-1.773.863-2.723.035-.761.44-1.108.955-1.465l.27-.186c1.032-.724 2.07-1.444 3.098-2.175.426-.303.721-.708.85-1.225.027-.117.146-.24.026-.351M136.29 19.953c.698-1.282 1.566-2.265 2.45-2.798-.016.67-1.558 2.467-2.45 2.798m17.213 4.565c-.67-.107-1.002-.69-.924-1.367.112-.977.486-1.884.706-2.827.325-1.398.966-2.742.815-4.236-.036-.345.002-.801-.372-.875-.475-.095-1.095-.28-1.47.018-1.089.86-2.264 1.648-3.066 2.827-.068.1-.172.19-.36.113.084-.632.132-1.284.265-1.918.19-.907.171-.982-.707-1.18a3.513 3.513 0 0 0-.592-.088c-.138-.006-.37.019-.339.176.072.365-.214.582-.286.88-.228.95-.486 1.893-.697 2.847a1.177 1.177 0 0 1-.392.682c-.694.604-1.372 1.228-2.06 1.839-.548.485-1.162.894-1.847 1.12-.978.324-1.403.045-1.485-.924-.06-.72.156-1.397.364-2.073.261-.851.76-1.6 1.058-2.433.444-1.235-.104-2.015-1.416-2.053-.39-.011-.667.087-.792.484-.154.488-.425.485-.81.222-.244-.163-.518-.376-.85-.186-.826.473-1.729.816-2.472 1.43-1.154.957-1.9 2.156-2.158 3.647a.676.676 0 0 0 .09.462c.642 1.208 2.298 1.45 3.237.46.224-.235.405-.511.62-.757.11-.125.174-.38.398-.29.177.07.09.289.103.442.128 1.449.785 2.194 2.168 2.45 2.086.39 3.786-.364 5.247-1.792.201-.196.384-.4.655-.566 0 .184-.006.312.001.439.04.812.211 1.046 1.008 1.102.526.036.897-.375 1.196-.742.546-.671 1.023-1.397 1.528-2.102.363-.508.724-1.02 1.125-1.586.093.28-.015.449-.07.612-.427 1.237-.596 2.507-.444 3.804.176 1.494.857 2.327 2.323 2.686.378.093.622-.122.858-.295.151-.112.293-.38-.156-.452M120.63 14.205l-.596 1.25c-.15-.585.254-.953.487-1.386.071-.157.037-.39.331-.435.023.246-.112.404-.222.571m-8.865 2.598c.137-.092.31-.36.493-.149.141.164-.006.387-.155.52-.659.58-1.34 1.128-2.119 1.567.492-.742 1.04-1.436 1.781-1.938m10.94 8.915c-.566-.372-.789-.923-.784-1.586.014-1.842.544-3.548 1.36-5.179.058-.119.222-.21.121-.379-.483-.819-1.045-1.549-2.057-1.735-.477-.087-.493-.31-.259-.674.517-.8.84-1.687 1.007-2.618.144-.807.25-1.603-.716-2.099-.337-.174-.555-.204-.79.016-1.099 1.027-2.17 2.064-2.329 3.703-.044.451-.005.915.272 1.16.512.451.2.746-.057 1.068-1.548 1.948-3.417 3.436-5.89 4.03-.879.211-1.76.435-2.67.11-.354-.127-.54-.348-.559-.712-.017-.327-.018-.6.381-.788.582-.273 1.117-.652 1.663-.999.795-.508 1.55-1.064 2.192-1.769.526-.58.517-1.135-.078-1.633-.486-.408-1.099-.569-1.669-.796-.727-.289-1.317.115-1.907.5-.967.632-1.649 1.53-2.16 2.516-.429.827-.483 1.801-.667 2.718-.044.22-.015.49.224.553.334.09.45.346.588.593.157.282.38.448.673.59 1.571.757 3.16.658 4.747.112.935-.322 1.824-.747 2.611-1.377 1.24-.992 2.504-1.955 3.564-3.146.401-.45.798-.51 1.245-.088.137.13.146.254.072.428-.358.837-.578 1.714-.715 2.611-.216 1.41-.297 2.81.29 4.173.474 1.101 2.206 1.545 3.138.742-.31-.097-.594.12-.842-.045"/>
    </g>
</svg>
