<svg xmlns="http://www.w3.org/2000/svg" width="282" height="51" viewBox="0 0 282 51">
    <g fill="#9B9B9B" fill-rule="evenodd">
        <path d="M49.968 19.662c-.056-.903 1.008-3.03 1.594-3.185-.44 1.107-1.024 2.098-1.594 3.185m-22.025 7.135c1.19-1.772 2.3-3.544 4.268-4.73-.433 1.55-3.039 4.405-4.268 4.73m27.054 9.369c-.25.011-1.444-.998-1.566-1.394-.27-.878-.359-1.788-.164-2.68.334-1.543.407-3.137 1.164-4.594.454-.87.52-1.923 1.195-2.713.053-.064-.495-1.173-.857-1.587-.66-.76-1.417-1.269-2.375-1.489-.868-.199-.964-.36-.534-1.111.078-.134.156-.267.23-.402.963-1.764 1.57-3.623 1.548-5.658-.004-.392-.123-.708-.445-.942-.418-.308-.848-.604-1.248-.934-.179-.147-.275-.045-.404.03-1.57.902-2.602 2.332-3.556 3.785-.534.808-.658 1.83-.762 2.814-.068.656.14 1.298.562 1.675.539.482.41.805.076 1.24-.163.214-.317.434-.492.64-1.276 1.51-2.793 2.771-4.278 4.063-.65.568-1.398 1.042-1.973 1.675-1.052 1.164-2.322 2.01-3.803 2.394-1.465.381-1.845-.111-2.03-1.351a4.362 4.362 0 0 1-.028-.86c.091-1.622.65-3.11 1.342-4.555.389-.814.826-1.605 1.082-2.474.486-1.643.083-2.262-1.648-2.857-.373-.13-.791-.117-1.205-.09-.386.026-.586.21-.754.514-.57 1.032-.571 1.027-1.663.462-.342-.177-.691-.376-1.094-.202-1.058.453-2.03 1.076-3.041 1.617-2.105 1.123-3.248 3.113-4.312 5.14-.06.11-.1.226-.055.328.244.557-.1.865-.502 1.103-.467.277-.866.65-1.322.928-1.107.673-2.02 1.631-3.23 2.148-.139.06-.26.162-.394.237a8.176 8.176 0 0 1-2.304.887c-.283.06-5.036.983-7.137.278-1.617-.545-2.755-.98-2.806-3.373-.04-1.949.74-7.518 1.009-8.1.201-.434.336-.895.498-1.345.24-.672.222-1.401.534-2.055.617-1.293 1.305-2.55 1.936-3.84 1.64-3.352 4.26-5.805 7.51-7.612.459-.256.971-.387 1.489-.45.457-.054.92.032 1.12.499.128.298.346.488.52.73.381.542.814 1.077 1.014 1.716.24.768.466 1.554.499 2.362.042 1.085.268 2.205-.305 3.226-.261.465-.132.764.27 1.012.212.133.433.252.66.358.565.261.807.182 1.04-.396.796-1.964 1.288-3.981 1.054-6.123-.367-3.356-3.462-6.687-7.987-5.646-2.226.512-4.116 1.701-5.987 2.93a3.75 3.75 0 0 0-.61.532c-.733.76-1.88 2.655-1.986 2.809a6.979 6.979 0 0 1-.664.87c-.632.68-2.643 3.632-2.581 3.767-.562.937-2.12 4.107-2.142 4.305-.63 1.1-2.278 4.974-2.319 5.17-.214.193-1.024 4.834-.718 5.85.42 1.396.927 2.769 1.887 3.917.145.174.24.394.333.603.095.214.277.352.412.524.394.511.982.678 1.497.984.796.475 1.605.911 2.51 1.14 1.994.503 3.975.619 5.951-.126.54-.205 1.055-.494 1.587-.645.556-.158 1.077-.383 1.592-.606 2.703-1.169 4.943-2.99 7.007-5.048.327-.326.693-.615 1.053-.906.1-.079.217-.237.386-.04.633.738 1.55.88 2.423 1.114.688.185 1.292.02 1.831-.438.549-.464 1.008-1.006 1.445-1.571.227-.295.416-.83.786-.727.322.09.18.645.221.996.23 2.006 1.2 3.207 3.019 3.615.656.148 1.339.206 2.012.248 2.199.14 4.081-.64 5.773-1.985 1.15-.914 2.214-1.91 3.162-3.03.21-.249.339-.553.627-.747a16.888 16.888 0 0 0 4.161-3.923c.088-.117.195-.322.358-.188.35.29.81.354 1.167.621.244.182.342.358.193.679-.425.907-.7 1.87-.896 2.848-.546 2.711-.976 5.419.161 8.11.297.703.74 1.205 1.4 1.534.84.418 1.74.52 2.656.366.442-.074.875-.237 1.218-.637-.38-.122-.687.041-1.003.057M95.675 26.839c1.102-1.801 2.191-3.613 4.133-4.634-.972 1.915-2.305 3.5-4.133 4.634m-29.93-.076c-.11.151-.2.136-.332.073-.264-.125-.521-.28-.692-.511-.548-.745-1.265-1.408-1.258-2.447 0-.175-.05-.335.185-.419.515-.18.652-.669.191-.875-.735-.328-.582-.896-.627-1.434-.02-.25-.123-.464-.24-.687 1.524-.186 3.364 1.205 3.56 2.578.19 1.318.025 2.596-.787 3.722m-3.832 3.306c-.84.308-1.517-.273-1.516-1.182.005-1.328.32-2.566 1.081-3.67.259-.374.46-.505.755.013.631 1.12 1.541 1.975 2.684 2.593-.7 1.18-1.806 1.808-3.004 2.246M86.624 7.357c.834-1.478 1.93-2.748 2.974-4.06.19-.238.513-.611.767-.41.262.205-.103.548-.234.813-.284.569-.608 1.121-.872 1.7-1.19 2.633-2.542 5.167-4.418 7.384-.432.51-.832 1.05-1.263 1.564-.167.2-.325.434-.69.503 1.187-2.576 2.374-5.077 3.736-7.494m27.229 17.284c-.37-.325-.674.07-.936.299-1.18 1.03-2.345 2.078-3.52 3.115-.226.202-.513.346-.705.573-1.032 1.218-2.363 1.978-3.836 2.458-1.091.354-1.795-.173-1.949-1.31a5.218 5.218 0 0 1-.038-.985c.096-1.635.65-3.138 1.342-4.593.39-.821.821-1.621 1.078-2.498.494-1.683.013-2.32-1.718-2.886-.375-.122-.792-.11-1.203-.065-.311.032-.485.175-.63.424-.21.364-.286.988-.648 1.036-.361.047-.78-.344-1.174-.542-.313-.155-.627-.295-.987-.141-1.041.443-1.984 1.075-2.979 1.606-2.12 1.13-3.272 3.157-4.336 5.223-.032.065-.076.155-.058.216.092.306-.128.389-.319.524-2.566 1.814-5.225 3.502-7.482 5.73a13.415 13.415 0 0 1-2.207 1.781c-.394.25-.732.212-.975-.186-.489-.799-1.087-1.54-1.314-2.485-.127-.532-.58-3.42-.307-4.297.573-1.847.626-3.797 1.307-5.64.55-1.484 1.543-2.613 2.375-3.872.194-.294.34-.667.623-.9.765-.624 1.361-1.412 1.994-2.153 1.105-1.296 2.14-2.65 3.211-3.975 2.069-2.561 2.991-5.536 3.21-8.792.067-.97-.106-1.603-1.129-1.924-.846-.264-1.624-.78-2.38.153-.202.252-2.792 2.317-3.643 3.368-.632.783-1.364 1.474-1.948 2.313-.712 1.025-1.267 2.15-2.057 3.131-.742.922-1.485 1.895-1.974 2.963-.729 1.593-1.349 3.241-2.036 4.858-1.01 2.378-1.472 4.92-2.005 7.437-.176.84-.587 1.495-1.448 1.774-.862.28-1.73.527-2.629.645a4.404 4.404 0 0 1-1.662-.098c.228-.52.49-.981.64-1.477.458-1.529.713-2.942-.579-4.361-.996-1.095-2.126-1.592-3.468-1.837-1.324-.24-2.657-.098-3.985-.037-.217.009-.552-.128-.555.296-.001.326-.04.674.464.695.365.017.546.192.237.54-.195.221-.028.723-.445.727-.899.013-1.187.67-1.467 1.327-.165.39-.33.766-.544 1.137-.385.674-.751 1.415-.918 2.144-.687 2.984 1.26 5.02 3.117 6 .13.068.292.097.442.105.975.058 1.958-.018 2.812-.492 1.121-.623 2.178-1.368 2.947-2.444.37-.515.74-.99 1.502-.706.219.081.501.036.744-.009 1.643-.296 3.265-.67 4.804-1.43.05.397.095.776.145 1.156.17 1.304.188 2.649.795 3.85.553 1.098 1.172 2.163 1.797 3.222.192.329.487.614.829.793 2.21 1.166 4.388 1.207 6.573-.122 1.778-1.082 2.957-2.754 4.309-4.26.42-.47.597-1.124 1.038-1.532.517-.476 1-1.017 1.652-1.362.428.857 1.273 1.106 2.122 1.405 1.137.402 2.054.172 2.865-.716.498-.544.921-1.145 1.392-1.708.096-.116.188-.284.363-.244.2.046.144.25.167.392.03.212.042.425.063.639.217 2.053 1.208 3.284 3.04 3.681 2.852.618 5.467.157 7.749-1.79.57-.489 1.118-1.001 1.678-1.497 1.107-.978 1.928-2.16 2.66-3.418.165-.28.418-.677.107-.952M133.828 25.125c-.292.04-.452.175-.445.422.046 1.478-.675 2.816-.77 4.276-.046.703.13 6.125-.161 6.145-.325.02-.78.136-1.08-.245-.495-.627-.692-1.367-.813-2.121a17.3 17.3 0 0 1-.084-4.964c.172-1.392-.02-2.814.24-4.207.05-.262-.12-.41-.327-.55a3.25 3.25 0 0 1-1.138-1.329c.131-.038.2-.076.268-.076 1.339.023 1.366.027 1.567-1.278a97.547 97.547 0 0 1 1.222-6.395c.098-.437.007-.524-.416-.526-.88-.001-1.76-.093-2.637-.073-1.064.022-1.816-.437-2.398-1.278-.23-.335-.516-.633-.856-1.043 1.347.268 2.337-.455 3.394-.906 3.271-1.396 6.529-2.86 10.04-3.553 3.735-.737 7.447-.543 11.042.821 1.034.393 1.603 1.082 1.515 1.729-.225 1.629-.614 2.059-2.196 2.361.12-.193.214-.35.316-.504.298-.448.133-.728-.347-.847-.708-.176-1.445-.275-2.154-.124-2.437.52-4.85 1.113-7.138 2.138-.964.43-1.919.883-3.051.832-.487-.022-.936.275-.987.956-.084 1.112-.63 2.09-1.125 3.07-.45.895-.907 2.743-.843 3.494 2.354-.466 4.714-.863 7.115-.944 2.696-.091 5.316.19 7.695 1.584.287.17.772.172.676.754-.099.604-.545.533-.935.55-1.575.071-3.153.102-4.725.19-1.59.087-3.194.025-4.756.401-.16.013-3.922.998-5.708 1.24M182.804 26.356c-.61.34-.73.911-1.057 1.33-.893 1.143-1.681 2.368-2.589 3.5-.544.677-1.153 1.372-2.237 1.095-.412-.105-.64-.297-.758-.697-.3-1.01-.13-2.015.071-2.997.346-1.683.787-3.347 1.173-5.023.106-.457.548-.791.438-1.335-.038-.184.249-.239.405-.228.595.044 1.195.132 1.73.405.476.242.32.684.21 1.048-.285.95-.286 1.933-.465 2.891.296.059.41-.066.536-.24 1.131-1.537 2.689-2.63 4.177-3.771.52-.4 1.372-.163 2.02-.023.55.117.46.773.511 1.26.203 1.927-.652 3.654-1.054 5.46-.298 1.333-.861 2.6-1.028 3.977-.12 1.006.292 1.742 1.324 1.948.59.117.305.489.16.596-.31.228-.628.534-1.1.425-2.055-.47-3.015-1.55-3.273-3.648-.217-1.758.007-3.485.606-5.16.082-.227.116-.47.2-.813M193 18.787c.957.265 1.646-.146 2.29-.481 2.106-1.098 4.302-1.877 6.646-2.243.548-.084.543-.104 1.064.068-1.268 1.34-2.745 2.412-4.44 3.106-1.214.498-2.531.722-3.844.762-.735.023-1.35-.34-1.716-1.212M266.856 43.088c-1.544 2.3-3.498 4.207-5.742 5.904 1.61-5.44 4.77-9.803 9.046-13.417-.092 1.155-2.053 5.65-3.304 7.513m-38.984-16.95c-1.54 1.525-2.696 3.413-4.428 4.762-.655.51-1.278 1.04-2.15 1.307.086-.757.33-1.38.65-2.047.67-1.382 1.717-2.386 2.78-3.397.519-.493 1.104-.921 1.674-1.356.269-.206.605-.31.937-.317.316-.004.622.123.764.43.114.25-.06.453-.227.619m21.597-2.193c.194-.134.439-.52.698-.215.2.233-.008.557-.22.747-.932.836-1.902 1.626-3.008 2.257.7-1.069 1.477-2.068 2.53-2.79m32.456 2.562c-.204-.191-.399.01-.552.11-.564.36-1.112.745-1.654 1.134-1.682 1.205-3.366 2.407-5.03 3.633-.37.272-.54.272-.664-.208-.283-1.092-1.017-1.867-1.918-2.442-.466-.295-.475-.573-.273-.973.43-.854.599-1.729.441-2.7-.166-1.027-.173-2.053-1.314-2.604-.939-.452-1.833-.985-2.915-.82-1.907.289-3.86.413-5.561 1.494-1.191.759-2.527 1.245-3.608 2.223-.94.85-1.784 1.828-2.762 2.589a14.72 14.72 0 0 1-5.75 2.728c-1.126.26-2.262.52-3.423.124-.516-.176-.856-.452-.897-1.028-.039-.514.001-.914.58-1.192.802-.385 1.545-.907 2.296-1.397 1.15-.747 2.247-1.56 3.17-2.599.711-.803.69-1.594-.12-2.296-.705-.612-1.6-.848-2.437-1.175-1.01-.395-1.823.171-2.638.713-1.392.925-2.478 2.194-3.076 3.691-.483 1.211-.949 2.222-2.016 3.053-2.43 1.884-4.628 4.076-7.404 5.48-.507.257-1.004.53-1.557.66-.622.146-1.1.033-1.34-.675-.195-.569-.381-1.13-.445-1.73-.231-2.2.11-4.31 1-6.318.613-1.384 1.026-2.857 1.95-4.102a16.465 16.465 0 0 0 1.586-2.671c.707-1.463 1.319-2.97 1.962-4.463 1.218-2.817 2.95-5.352 4.295-8.103.461-.945.387-1.666-.565-2.113-.28-.13-.571-.236-.844-.378-.629-.329-1.046-.11-1.269.517-.355.996-.974 1.827-1.56 2.683-2.022 2.95-4.266 5.757-5.722 9.078-.727 1.66-1.303 3.368-1.831 5.098-.15.496-.42.952-.378 1.498.02.249-.048.48-.282.597-.254.127-.449-.05-.622-.197-.395-.337-.757-.711-1.16-1.037-1.117-.908-1.894-.915-2.878.097-.454.47-1.102.684-1.403 1.406-.23.56-.985.828-1.503 1.207-2.064 1.509-2.446 3.764-2.812 6.047-.046.278-.01.575.024.86.142 1.151 1.708 2.205 2.752 1.782 1.95-.792 3.776-1.801 5.23-3.392.217-.236.458-.623.811-.462.26.12.096.521.107.792.074 1.632.28 3.203 1.687 4.295.08.061.133.16.187.247.585.949 2.193 1.568 3.278 1.29 1.633-.417 3.027-1.314 4.371-2.279 1.626-1.166 2.928-2.736 4.582-3.882.703-.486 1.322-.537 1.7.224.62 1.25 1.76 1.445 2.887 1.81 1.787.58 3.466.076 5.128-.441a10.81 10.81 0 0 0 3.206-1.616c1.765-1.295 3.294-2.912 5.271-3.922 1.397-.712 2.774-1.47 4.143-2.237 1.205-.678 2.433-1.251 3.586-1.212 1.322-.03 1.512.069 1.495.682-.04 1.654-.96 2.943-1.78 4.262-.39.63-1.184.386-1.745.675-.112.06-.238.09-.36.131-1.753.6-3.148 1.74-4.477 2.992-.143.137-.264.507-.527.294-.19-.156-.294-.406-.467-.05-.184.377-.808.555-.54 1.137.475 1.023 2.627 1.96 3.726 1.612.825-.262 1.637-.568 2.46-.843.796-.265 1.444-.788 2.056-1.322.886-.776 1.688-1.649 2.517-2.49.21-.213.41-.133.64-.071.224.06.378.145.353.417-.146 1.542-.13 3.057-1.624 4.158-3.32 2.445-5.979 5.533-7.96 9.189-.844 1.553-1.62 3.141-1.79 4.953-.05.534.013 1.05.375 1.425.92.947 2.232 1.09 3.419.474 2.62-1.36 4.574-3.498 6.112-5.93 1.302-2.061 2.697-4.114 3.463-6.493.42-1.307 1.162-2.552 1.226-3.92.05-1.096.623-1.595 1.356-2.11l.382-.267c1.466-1.043 2.939-2.08 4.4-3.132.604-.436 1.023-1.02 1.205-1.764.04-.168.209-.345.038-.505M191.792 28.752c.989-1.742 2.215-3.078 3.464-3.802-.022.911-2.201 3.352-3.464 3.802m24.332 6.202c-.947-.145-1.416-.936-1.306-1.857.158-1.328.687-2.56.998-3.841.46-1.9 1.365-3.726 1.152-5.756-.05-.469.003-1.089-.526-1.19-.671-.128-1.548-.378-2.078.025-1.539 1.17-3.2 2.24-4.333 3.842-.097.137-.244.258-.51.153.12-.859.187-1.744.375-2.606.269-1.232.242-1.334-.999-1.602a5.152 5.152 0 0 0-.837-.12c-.195-.01-.523.025-.479.238.102.496-.302.791-.404 1.197-.322 1.291-.687 2.571-.985 3.867-.09.388-.248.67-.554.927-.981.82-1.94 1.669-2.914 2.499-.773.659-1.64 1.215-2.609 1.522-1.382.44-1.983.061-2.099-1.256-.085-.977.22-1.898.515-2.816.368-1.157 1.072-2.173 1.495-3.306.628-1.679-.147-2.738-2.001-2.79-.552-.015-.943.118-1.12.658-.218.663-.6.659-1.146.301-.344-.221-.731-.51-1.2-.252-1.168.642-2.444 1.108-3.494 1.944-1.632 1.299-2.687 2.928-3.05 4.954-.043.238.012.424.125.628.909 1.641 3.25 1.97 4.577.626.317-.32.572-.695.876-1.03.156-.17.246-.515.563-.394.25.095.127.393.145.6.181 1.97 1.11 2.982 3.065 3.331 2.948.529 5.351-.496 7.416-2.436.284-.266.543-.542.926-.77 0 .25-.008.425.002.597.055 1.104.298 1.422 1.424 1.498.744.049 1.268-.51 1.69-1.008.773-.912 1.447-1.899 2.16-2.857.514-.69 1.024-1.384 1.59-2.155.132.38-.02.61-.1.832-.602 1.68-.84 3.406-.626 5.169.25 2.03 1.212 3.162 3.284 3.65.534.126.879-.166 1.213-.401.213-.153.414-.517-.22-.615M169.924 20.092c-.277.59-.555 1.177-.833 1.765-.21-.825.355-1.345.68-1.957.1-.222.052-.552.463-.614.032.347-.156.57-.31.806m-12.392 3.67c.192-.13.434-.51.69-.21.196.232-.009.547-.217.735-.921.82-1.875 1.593-2.962 2.213.687-1.048 1.453-2.028 2.49-2.737m15.29 12.594c-.79-.526-1.101-1.304-1.094-2.24.02-2.603.76-5.013 1.9-7.317.082-.168.31-.297.17-.535-.675-1.158-1.461-2.189-2.876-2.452-.666-.122-.689-.439-.362-.952.723-1.13 1.175-2.383 1.408-3.698.201-1.14.348-2.265-1-2.966-.472-.245-.777-.288-1.105.023-1.536 1.451-3.035 2.916-3.256 5.231-.061.638-.007 1.293.38 1.64.716.636.279 1.053-.08 1.508-2.163 2.752-4.776 4.854-8.232 5.693-1.229.298-2.462.615-3.732.154-.495-.178-.757-.49-.782-1.004-.024-.462-.025-.85.533-1.114.813-.385 1.561-.92 2.324-1.41 1.112-.718 2.167-1.504 3.064-2.5.736-.82.723-1.603-.109-2.307-.68-.576-1.536-.804-2.333-1.124-1.016-.409-1.84.162-2.665.706-1.352.893-2.305 2.16-3.02 3.554-.6 1.169-.675 2.545-.932 3.84-.061.31-.021.69.313.781.467.127.63.49.822.838.22.398.531.633.94.834 2.197 1.069 4.416.93 6.636.158 1.307-.455 2.55-1.055 3.65-1.945 1.732-1.402 3.5-2.762 4.982-4.445.56-.637 1.115-.72 1.74-.124.192.183.204.359.1.604-.5 1.183-.807 2.422-.999 3.689-.302 1.992-.415 3.968.406 5.895.662 1.556 3.083 2.183 4.386 1.049-.435-.137-.83.168-1.177-.064"/>
    </g>
</svg>
