<svg xmlns="http://www.w3.org/2000/svg" xmlns:xlink="http://www.w3.org/1999/xlink" width="269" height="60" viewBox="0 0 269 60">
    <defs>
        <path id="a" d="M.317.331H60v43.906H.317z"/>
        <path id="c" d="M.992.847h8.004V14H.992z"/>
        <path id="e" d="M0 59.637h269V0H0z"/>
    </defs>
    <g fill="none" fill-rule="evenodd">
        <path fill="#86B7A4" d="M47.382 18.536c-.053-.86.957-2.889 1.511-3.037-.416 1.057-.97 2.001-1.51 3.037m-20.887 6.802c1.13-1.689 2.182-3.378 4.048-4.51-.41 1.48-2.88 4.2-4.048 4.51m25.656 8.931c-.239.012-1.369-.95-1.485-1.327-.257-.837-.34-1.705-.157-2.557.317-1.469.386-2.99 1.105-4.378.43-.828.493-1.834 1.132-2.587.052-.06-.47-1.118-.812-1.513-.626-.724-1.344-1.209-2.252-1.419-.823-.19-.914-.345-.506-1.06.072-.128.147-.254.217-.383.914-1.682 1.49-3.455 1.47-5.393-.005-.375-.118-.676-.423-.9-.398-.293-.806-.574-1.185-.89-.168-.14-.259-.043-.382.028-1.488.861-2.467 2.224-3.373 3.61-.505.77-.624 1.745-.722 2.682-.065.626.134 1.238.533 1.597.511.46.388.768.073 1.182-.155.204-.302.415-.466.611-1.21 1.44-2.649 2.641-4.058 3.874-.617.54-1.327.992-1.87 1.596-.999 1.11-2.203 1.915-3.607 2.282-1.388.364-1.749-.105-1.924-1.288a4.092 4.092 0 0 1-.027-.82c.087-1.546.616-2.965 1.272-4.343.37-.775.783-1.53 1.027-2.359.46-1.565.078-2.156-1.563-2.724-.354-.122-.75-.11-1.143-.084-.367.025-.556.2-.715.49-.54.983-.543.98-1.578.44-.324-.169-.654-.358-1.037-.193-1.003.432-1.924 1.027-2.883 1.541-1.996 1.071-3.08 2.97-4.089 4.901-.055.106-.094.216-.052.313.231.531-.095.825-.476 1.052-.443.264-.82.62-1.254.884-1.049.642-1.914 1.556-3.062 2.048-.133.057-.248.155-.374.226a7.782 7.782 0 0 1-2.185.847c-.269.057-4.776.936-6.768.263-1.533-.518-2.612-.934-2.66-3.215-.038-1.857.701-7.167.956-7.722.191-.413.32-.854.471-1.283.23-.64.212-1.336.508-1.959.585-1.233 1.238-2.432 1.836-3.66 1.555-3.197 4.04-5.535 7.121-7.258.435-.243.921-.369 1.412-.428.433-.052.873.03 1.062.475.121.283.33.466.492.697.362.517.773 1.026.962 1.635.227.733.443 1.481.474 2.252.04 1.035.255 2.102-.29 3.076-.247.442-.125.727.257.965.201.126.411.24.626.34.535.25.765.175.986-.376.755-1.873 1.221-3.796 1-5.838-.349-3.2-3.284-6.376-7.575-5.383-2.11.488-3.903 1.622-5.676 2.793a3.538 3.538 0 0 0-.579.508c-.696.725-1.784 2.531-1.883 2.678a6.599 6.599 0 0 1-.629.827c-.6.65-2.508 3.465-2.448 3.593-.533.893-2.01 3.916-2.032 4.105-.597 1.05-2.159 4.741-2.199 4.928-.202.185-.97 4.608-.68 5.578.398 1.33.878 2.64 1.79 3.734.136.165.226.375.315.574.09.205.262.336.39.501.374.486.932.645 1.42.938.755.453 1.521.868 2.38 1.086 1.891.48 3.77.591 5.643-.12.511-.195 1.002-.47 1.505-.614.527-.15 1.021-.367 1.508-.578 2.565-1.114 4.69-2.85 6.646-4.813.31-.31.657-.587 1-.863.094-.076.205-.227.365-.039.6.705 1.47.84 2.296 1.062.654.176 1.226.02 1.737-.416.52-.444.957-.96 1.371-1.5.215-.28.394-.79.745-.692.306.085.171.616.21.95.218 1.912 1.138 3.057 2.862 3.446.623.141 1.27.195 1.91.236 2.083.133 3.87-.61 5.473-1.893 1.09-.87 2.1-1.82 2.998-2.889.198-.236.32-.527.594-.71a16.034 16.034 0 0 0 3.946-3.74c.084-.113.185-.307.34-.18.331.275.767.337 1.105.591.232.174.325.343.184.647-.403.866-.664 1.784-.85 2.716-.517 2.585-.924 5.167.153 7.733.281.67.703 1.148 1.328 1.461.796.398 1.65.496 2.518.35.42-.072.83-.227 1.156-.608-.36-.117-.652.04-.95.053M91.509 25.357c1.048-1.701 2.086-3.414 3.934-4.378-.925 1.81-2.194 3.307-3.934 4.378m-28.493-.072c-.105.144-.191.128-.317.069-.251-.118-.495-.265-.657-.483-.523-.703-1.204-1.33-1.198-2.311.001-.166-.048-.316.176-.395.49-.172.621-.633.182-.828-.7-.31-.554-.846-.596-1.354-.02-.237-.118-.44-.23-.65 1.452-.175 3.203 1.139 3.39 2.435.18 1.246.023 2.454-.75 3.517m-3.648 3.124c-.8.29-1.443-.26-1.442-1.116.003-1.255.304-2.425 1.029-3.468.246-.353.438-.477.717.012.603 1.057 1.468 1.866 2.557 2.45-.667 1.113-1.72 1.707-2.861 2.122M82.893 6.95c.793-1.396 1.837-2.596 2.832-3.836.18-.225.487-.578.73-.388.248.195-.098.518-.224.769-.27.538-.579 1.059-.829 1.607-1.135 2.487-2.421 4.88-4.206 6.975-.412.483-.793.992-1.203 1.478-.159.189-.309.41-.656.474 1.13-2.432 2.26-4.795 3.556-7.08m25.92 16.33c-.351-.306-.64.066-.89.282-1.123.974-2.232 1.965-3.351 2.945-.216.189-.488.326-.671.54-.982 1.15-2.249 1.869-3.653 2.322-1.037.335-1.708-.163-1.854-1.237a4.828 4.828 0 0 1-.036-.931c.09-1.544.618-2.963 1.277-4.34.372-.774.781-1.531 1.026-2.36.47-1.59.014-2.192-1.635-2.726-.357-.116-.755-.104-1.146-.062-.296.032-.462.166-.598.4-.201.346-.273.935-.618.98-.344.045-.742-.326-1.118-.511-.298-.148-.597-.28-.94-.134-.991.418-1.888 1.015-2.835 1.516-2.019 1.069-3.115 2.984-4.127 4.935-.032.063-.073.147-.055.205.087.289-.123.368-.305.495-2.442 1.714-4.974 3.309-7.123 5.413-.641.629-1.337 1.2-2.101 1.683-.376.237-.697.2-.928-.175-.466-.756-1.034-1.455-1.25-2.348-.122-.503-.552-3.231-.293-4.061.545-1.745.597-3.587 1.245-5.326.522-1.403 1.468-2.47 2.26-3.66.185-.277.323-.631.593-.85.729-.59 1.296-1.333 1.898-2.034 1.052-1.224 2.038-2.504 3.057-3.756 1.97-2.42 2.847-5.231 3.057-8.307.063-.915-.101-1.513-1.075-1.816-.806-.25-1.547-.738-2.266.144-.194.238-2.658 2.189-3.468 3.182-.603.74-1.299 1.392-1.855 2.185-.678.97-1.206 2.032-1.958 2.959-.707.87-1.414 1.789-1.879 2.798-.693 1.505-1.284 3.062-1.938 4.59-.962 2.246-1.402 4.649-1.908 7.027-.169.794-.56 1.413-1.38 1.676-.819.263-1.647.497-2.502.61a4.248 4.248 0 0 1-1.583-.094c.218-.491.467-.926.609-1.394.437-1.445.679-2.781-.55-4.121-.949-1.034-2.025-1.505-3.303-1.735-1.259-.227-2.528-.094-3.792-.037-.207.01-.526-.12-.528.28-.002.309-.038.637.44.658.349.015.521.18.226.51-.185.208-.026.682-.424.687-.855.012-1.13.633-1.395 1.253a9.906 9.906 0 0 1-.517 1.075c-.368.636-.716 1.336-.876 2.025-.653 2.82 1.201 4.742 2.967 5.668.124.065.279.092.422.1.928.054 1.864-.016 2.676-.465 1.068-.588 2.074-1.293 2.807-2.31.351-.486.704-.934 1.429-.666.208.077.477.034.708-.007 1.565-.28 3.109-.634 4.573-1.353.047.375.091.734.138 1.092.163 1.232.18 2.503.757 3.638.527 1.037 1.116 2.043 1.71 3.045.184.309.465.579.791.749 2.103 1.1 4.177 1.14 6.256-.116 1.694-1.023 2.815-2.601 4.102-4.025.402-.444.569-1.063.989-1.447.492-.451.95-.961 1.572-1.288.408.81 1.213 1.047 2.02 1.329 1.084.379 1.956.162 2.728-.676.474-.515.877-1.082 1.325-1.615.091-.11.179-.268.346-.23.188.043.137.235.158.37.03.2.04.403.062.603.205 1.94 1.149 3.104 2.893 3.479 2.715.583 5.204.148 7.376-1.692.544-.461 1.064-.945 1.598-1.413 1.054-.924 1.834-2.042 2.533-3.23.155-.265.397-.64.1-.9M128.238 23.634c-.275.038-.425.166-.418.401.043 1.412-.637 2.69-.727 4.084-.044.67.123 5.846-.153 5.864-.306.02-.736.13-1.02-.232-.469-.6-.653-1.305-.769-2.026a16.774 16.774 0 0 1-.08-4.738c.165-1.328-.016-2.685.23-4.016.044-.25-.115-.392-.31-.524a3.105 3.105 0 0 1-1.076-1.268c.125-.037.19-.074.253-.072 1.265.02 1.29.024 1.48-1.221a92.958 92.958 0 0 1 1.154-6.105c.092-.418.007-.5-.393-.502-.829-.002-1.66-.088-2.488-.07-1.006.021-1.717-.416-2.266-1.22-.218-.32-.487-.605-.808-.996 1.273.256 2.207-.434 3.205-.864 3.09-1.332 6.165-2.73 9.48-3.391 3.528-.705 7.034-.52 10.43.783.976.375 1.514 1.032 1.43 1.65-.213 1.556-.58 1.965-2.076 2.256.114-.185.203-.336.3-.482.28-.43.125-.696-.328-.81-.669-.168-1.364-.262-2.035-.117-2.3.495-4.58 1.063-6.74 2.04-.91.412-1.811.844-2.88.794-.46-.02-.885.262-.933.912-.08 1.062-.596 1.995-1.063 2.931-.424.854-.857 2.62-.796 3.337 2.222-.447 4.452-.826 6.72-.902 2.546-.087 5.02.18 7.266 1.512.272.16.73.165.64.718-.095.579-.515.509-.884.526-1.488.069-2.976.099-4.464.181-1.5.084-3.012.024-4.49.384-.153.012-3.703.951-5.39 1.183M174.584 24.468c-.598.335-.715.902-1.034 1.317-.875 1.133-1.647 2.346-2.536 3.466-.533.671-1.129 1.36-2.19 1.085-.405-.103-.628-.294-.744-.69-.293-1-.128-1.995.07-2.969.338-1.666.771-3.314 1.15-4.974.102-.453.535-.784.428-1.322-.038-.183.245-.236.396-.226.584.043 1.17.13 1.695.4.466.24.314.678.205 1.038-.279.942-.28 1.915-.455 2.864.29.058.401-.067.526-.238 1.106-1.521 2.633-2.605 4.091-3.735.51-.395 1.343-.16 1.978-.023.537.117.45.767.5 1.25.2 1.907-.639 3.617-1.034 5.408-.29 1.319-.843 2.573-1.005 3.938-.119.994.284 1.725 1.297 1.93.578.115.3.483.156.59-.304.226-.615.529-1.078.42-2.012-.465-2.952-1.535-3.205-3.613-.213-1.742.008-3.453.595-5.111.08-.226.114-.466.194-.805M184.572 17.872c.92.253 1.583-.138 2.2-.458 2.026-1.046 4.137-1.79 6.389-2.137.525-.08.523-.1 1.02.063-1.217 1.28-2.637 2.3-4.264 2.962-1.167.474-2.434.687-3.697.725-.706.022-1.296-.324-1.648-1.155"/>
        <g transform="translate(209 3.637)">
            <mask id="b" fill="#fff">
                <use xlink:href="#a"/>
            </mask>
            <path fill="#86B7A4" d="M45.654 36.846c-1.464 2.148-3.314 3.93-5.441 5.516 1.525-5.082 4.52-9.159 8.57-12.535-.087 1.08-1.944 5.28-3.13 7.02M8.722 21.012C7.26 22.436 6.167 24.2 4.526 25.46c-.62.476-1.21.972-2.036 1.221.08-.707.31-1.289.617-1.913.632-1.29 1.625-2.228 2.632-3.172.492-.46 1.045-.86 1.586-1.267.255-.192.572-.29.889-.295.296-.005.587.113.722.402.109.231-.055.422-.215.577m20.46-2.049c.184-.125.417-.486.662-.2.189.218-.007.52-.21.698-.883.78-1.801 1.518-2.848 2.107.662-.997 1.398-1.93 2.396-2.605m30.748 2.393c-.194-.179-.378.01-.523.101a37.1 37.1 0 0 0-1.567 1.061c-1.593 1.125-3.188 2.247-4.766 3.392-.351.255-.511.254-.628-.193-.27-1.02-.963-1.745-1.817-2.28-.441-.277-.45-.536-.26-.909.408-.799.568-1.617.42-2.524-.157-.959-.164-1.917-1.247-2.432-.888-.422-1.736-.92-2.76-.767-1.807.271-3.657.386-5.27 1.397-1.127.707-2.393 1.163-3.417 2.076-.89.794-1.69 1.708-2.617 2.42a14.051 14.051 0 0 1-5.447 2.548c-1.066.241-2.143.485-3.243.115-.487-.163-.811-.422-.85-.96-.035-.48 0-.855.55-1.114.762-.359 1.463-.847 2.175-1.304 1.089-.699 2.13-1.457 3.004-2.429.673-.75.653-1.488-.114-2.145-.67-.572-1.516-.792-2.31-1.097-.954-.368-1.726.16-2.497.665-1.32.865-2.348 2.05-2.915 3.45-.458 1.13-.898 2.075-1.911 2.851-2.3 1.76-4.384 3.807-7.014 5.12-.48.24-.95.494-1.476.615-.588.136-1.04.032-1.27-.63-.183-.53-.36-1.055-.42-1.616-.22-2.054.105-4.026.948-5.902.58-1.292.972-2.668 1.848-3.833a15.382 15.382 0 0 0 1.502-2.495c.669-1.366 1.249-2.775 1.859-4.169 1.154-2.63 2.796-5 4.068-7.569.437-.883.367-1.557-.536-1.974-.264-.122-.541-.22-.8-.354-.594-.306-.99-.1-1.201.484-.335.931-.921 1.706-1.477 2.506-1.916 2.757-4.042 5.378-5.421 8.482-.688 1.55-1.234 3.144-1.734 4.761-.144.463-.4.89-.36 1.4.02.233-.044.448-.266.558-.241.118-.426-.048-.59-.185-.373-.315-.717-.664-1.098-.969-1.058-.849-1.795-.855-2.726.091-.432.438-1.045.64-1.33 1.315-.22.52-.932.772-1.423 1.126-1.956 1.41-2.318 3.516-2.665 5.65-.042.26-.01.537.023.802.134 1.075 1.618 2.061 2.607 1.665 1.847-.74 3.577-1.683 4.955-3.169.205-.22.432-.58.767-.43.248.111.09.485.103.738.068 1.526.264 2.992 1.597 4.013.076.057.126.15.178.231.555.887 2.077 1.464 3.105 1.205 1.547-.39 2.868-1.229 4.14-2.129 1.542-1.09 2.775-2.555 4.342-3.626.666-.455 1.253-.502 1.61.21.588 1.166 1.667 1.35 2.735 1.69 1.694.541 3.284.07 4.858-.413a10.282 10.282 0 0 0 3.037-1.508c1.672-1.21 3.122-2.72 4.994-3.664a114.256 114.256 0 0 0 3.925-2.09c1.143-.634 2.305-1.169 3.399-1.133 1.25-.029 1.43.065 1.416.638-.04 1.545-.911 2.75-1.687 3.981-.37.59-1.122.36-1.652.631-.108.055-.228.084-.343.122-1.66.56-2.982 1.625-4.24 2.795-.137.128-.251.473-.5.274-.18-.145-.278-.378-.443-.046-.174.351-.765.518-.51 1.061.45.958 2.487 1.832 3.529 1.507.782-.244 1.55-.532 2.329-.788.755-.248 1.37-.736 1.948-1.235.84-.724 1.6-1.54 2.387-2.326.197-.198.389-.124.604-.066.212.056.359.134.334.39-.137 1.44-.123 2.854-1.54 3.883-3.142 2.285-5.661 5.17-7.54 8.585-.798 1.451-1.535 2.934-1.694 4.627-.047.5.012.981.356 1.331.87.885 2.113 1.018 3.238.442 2.483-1.27 4.334-3.267 5.79-5.54 1.234-1.924 2.556-3.843 3.28-6.064.399-1.222 1.103-2.385 1.163-3.663.048-1.023.589-1.49 1.284-1.97.12-.083.242-.166.36-.25 1.39-.974 2.786-1.943 4.17-2.926.574-.407.969-.953 1.14-1.647.04-.158.2-.323.038-.472" mask="url(#b)"/>
        </g>
        <path fill="#86B7A4" d="M183.309 26.837c.94-1.724 2.108-3.046 3.296-3.763-.022.9-2.096 3.317-3.296 3.763m23.152 6.14c-.9-.144-1.347-.927-1.242-1.84.15-1.313.654-2.532.95-3.802.438-1.88 1.299-3.687 1.096-5.696-.048-.466.003-1.078-.5-1.178-.64-.127-1.473-.374-1.978.025-1.464 1.158-3.044 2.216-4.124 3.803-.09.134-.23.255-.484.15.113-.85.177-1.726.357-2.578.255-1.221.23-1.322-.952-1.587a4.75 4.75 0 0 0-.796-.12c-.184-.007-.498.026-.456.237.097.492-.287.782-.383 1.185-.307 1.278-.655 2.546-.94 3.828-.084.384-.233.663-.525.917-.934.813-1.845 1.652-2.772 2.474-.735.653-1.561 1.202-2.483 1.507-1.316.435-1.887.06-1.997-1.243-.081-.967.209-1.88.489-2.788.352-1.145 1.02-2.151 1.423-3.273.596-1.661-.141-2.71-1.904-2.761-.526-.015-.898.117-1.066.65-.207.658-.57.653-1.092.3-.325-.22-.694-.507-1.14-.251-1.112.637-2.326 1.097-3.325 1.924-1.552 1.287-2.557 2.899-2.903 4.905-.041.235.013.42.12.62.865 1.626 3.09 1.952 4.355.62.302-.316.545-.688.834-1.018.147-.168.234-.51.535-.391.237.095.12.39.14.595.172 1.949 1.053 2.95 2.915 3.297 2.805.523 5.09-.491 7.057-2.411.27-.264.517-.538.88-.762 0 .248-.007.419 0 .59.055 1.093.285 1.408 1.358 1.482.707.049 1.207-.505 1.608-.998.734-.902 1.377-1.88 2.056-2.826.488-.684.972-1.371 1.513-2.133.124.376-.021.603-.096.822-.573 1.665-.8 3.373-.595 5.117.236 2.009 1.152 3.13 3.124 3.613.507.125.837-.165 1.153-.398.205-.15.396-.511-.21-.607M162.247 19.106l-.8 1.68c-.203-.785.34-1.28.653-1.863.096-.21.05-.526.445-.586.032.332-.15.545-.298.77M150.324 22.6c.184-.124.417-.485.662-.2.19.22-.007.521-.209.7-.884.78-1.803 1.517-2.85 2.106.663-.997 1.4-1.93 2.397-2.606m14.712 11.991c-.76-.5-1.06-1.242-1.053-2.133.02-2.478.732-4.772 1.828-6.967.081-.158.3-.28.165-.51-.65-1.1-1.407-2.083-2.767-2.333-.642-.117-.664-.418-.349-.905.696-1.077 1.13-2.269 1.355-3.522.195-1.086.335-2.156-.963-2.823-.453-.234-.746-.275-1.064.02-1.476 1.383-2.919 2.777-3.13 4.982-.06.606-.008 1.23.366 1.56.687.606.265 1.003-.078 1.436-2.08 2.62-4.596 4.622-7.922 5.42-1.182.285-2.367.585-3.59.147-.478-.17-.728-.466-.753-.956-.022-.44-.024-.808.513-1.06.783-.367 1.502-.876 2.235-1.344 1.07-.683 2.087-1.43 2.95-2.379.707-.779.694-1.527-.105-2.196-.656-.549-1.479-.765-2.244-1.07-.978-.39-1.774.154-2.566.671-1.302.851-2.219 2.057-2.907 3.385-.576 1.112-.648 2.423-.896 3.656-.059.294-.02.657.302.744.448.121.606.464.79.796.212.38.512.604.906.794 2.113 1.02 4.25.885 6.384.151 1.26-.433 2.454-1.004 3.512-1.852 1.667-1.335 3.368-2.629 4.793-4.232.54-.607 1.074-.686 1.676-.117.183.173.197.341.096.575-.482 1.125-.778 2.306-.96 3.511-.29 1.898-.4 3.78.39 5.613.636 1.48 2.966 2.078 4.22.998-.418-.13-.799.16-1.134-.06"/>
        <path fill="gray" d="M48.447 53.166c1.816 0 2.592-.229 3.226-.67.653-.458 1.041-1.163 1.041-2.08 0-1.005-.441-1.693-1.129-2.134-.741-.475-1.657-.616-3.138-.616H46.26v5.5h2.187zm-3.262-6.488h3.332c1.64 0 2.804.194 3.738.811.935.617 1.552 1.57 1.552 2.891 0 1.287-.582 2.292-1.499 2.91-.952.652-2.239.828-3.985.828H46.26v5.325h-1.075V46.678z"/>
        <g transform="translate(55 45.637)">
            <mask id="d" fill="#fff">
                <use xlink:href="#c"/>
            </mask>
            <path fill="gray" d="M1.221 11.743c1.111.864 2.557 1.252 3.738 1.252 1.71 0 2.962-.829 2.962-2.486 0-1.887-1.64-2.292-3.297-2.75C2.79 7.246.992 6.576.992 4.266c0-2.186 1.586-3.42 3.896-3.42 1.199 0 2.592.335 3.579 1.005v1.163C7.392 2.24 6.016 1.852 4.87 1.852c-1.657 0-2.803.793-2.803 2.345 0 1.816 1.605 2.186 3.192 2.627 1.816.511 3.737 1.181 3.737 3.632 0 2.24-1.64 3.544-4.037 3.544-1.27 0-2.716-.37-3.738-1.058v-1.199z" mask="url(#d)"/>
        </g>
        <mask id="f" fill="#fff">
            <use xlink:href="#e"/>
        </mask>
        <path fill="gray" d="M66.886 59.444h1.075V46.679h-1.075zM77.57 46.484c1.287 0 2.433.317 3.42.811v1.2a6.248 6.248 0 0 0-3.42-1.006c-3.332 0-5.57 2.451-5.57 5.571 0 3.121 2.238 5.572 5.64 5.572a6.196 6.196 0 0 0 3.58-1.11v1.198c-1.005.6-2.293.917-3.632.917-3.932 0-6.665-2.857-6.665-6.559 0-3.632 2.627-6.594 6.647-6.594M89.84 45.426h-.811l1.516-2.892h1.146l-1.851 2.892zm.088 13.206c3.103 0 5.36-2.468 5.36-5.572 0-3.102-2.257-5.57-5.36-5.57s-5.36 2.468-5.36 5.57c0 3.103 2.257 5.572 5.36 5.572zm0-12.148c3.667 0 6.435 2.892 6.435 6.576 0 3.685-2.768 6.576-6.435 6.576s-6.435-2.89-6.435-6.576c0-3.684 2.768-6.576 6.435-6.576zM99.306 46.678h1.075v11.777h6.33v.988h-7.405zM114.538 58.632c3.103 0 5.36-2.468 5.36-5.572 0-3.102-2.257-5.57-5.36-5.57s-5.36 2.468-5.36 5.57c0 3.104 2.257 5.572 5.36 5.572m0-12.148c3.667 0 6.435 2.892 6.435 6.576 0 3.685-2.768 6.577-6.435 6.577s-6.435-2.892-6.435-6.577c0-3.684 2.768-6.576 6.435-6.576M129.857 46.484a7.45 7.45 0 0 1 3.755.988v1.234a6.436 6.436 0 0 0-3.79-1.217c-3.35 0-5.57 2.47-5.57 5.571 0 3.07 2.167 5.59 5.587 5.59 1.146 0 2.24-.283 3.068-.759v-3.578h-3.244v-.988h4.32v5.113c-1.11.722-2.663 1.2-4.232 1.2-3.808 0-6.576-2.84-6.576-6.56 0-3.702 2.698-6.594 6.682-6.594M143.273 51.491a285.42 285.42 0 0 1-1.41-3.509h-.035a341.163 341.163 0 0 1-1.41 3.491l-1.305 3.174h5.447l-1.287-3.156zm-1.94-4.813h1.024l5.342 12.765h-1.164l-1.57-3.809h-6.258l-1.57 3.81h-1.11l5.307-12.766zM160.76 46.484c1.288 0 2.434.317 3.421.811v1.2a6.251 6.251 0 0 0-3.421-1.006c-3.332 0-5.57 2.451-5.57 5.571 0 3.121 2.238 5.572 5.641 5.572 1.34 0 2.575-.406 3.579-1.11v1.198c-1.004.6-2.292.917-3.631.917-3.932 0-6.665-2.857-6.665-6.559 0-3.632 2.626-6.594 6.646-6.594M167.442 46.678h1.075v11.777h6.329v.988h-7.404zM177.631 59.444h1.075V46.679h-1.075v12.765zm.441-14.017h-.811l1.516-2.892h1.146l-1.851 2.892zM182.409 59.443V46.678h1.022l5.835 7.775a321.91 321.91 0 0 1 2.399 3.244l.035-.018c-.018-1.234-.018-2.538-.018-3.825v-7.176h1.04v12.765h-1.023l-5.835-7.775a297.273 297.273 0 0 1-2.398-3.245l-.036.02c.018 1.232.018 2.537.018 3.824v7.176h-1.04zM196.423 59.444h1.076V46.679h-1.076zM207.107 46.484c1.287 0 2.434.317 3.42.811v1.2a6.254 6.254 0 0 0-3.42-1.006c-3.332 0-5.57 2.451-5.57 5.571 0 3.121 2.238 5.572 5.64 5.572 1.34 0 2.576-.406 3.58-1.11v1.198c-1.004.6-2.293.917-3.631.917-3.932 0-6.665-2.857-6.665-6.559 0-3.632 2.626-6.594 6.646-6.594M219.64 51.491a285.42 285.42 0 0 1-1.41-3.509h-.034a319.724 319.724 0 0 1-1.41 3.491l-1.305 3.174h5.447l-1.287-3.156zm-1.937-4.813h1.022l5.342 12.765h-1.164l-1.57-3.809h-6.258l-1.57 3.81h-1.11l5.308-12.766z" mask="url(#f)"/>
    </g>
</svg>
