<svg xmlns="http://www.w3.org/2000/svg" width="65" height="65" viewBox="0 0 65 65">
    <g fill="#436A5B" fill-rule="nonzero">
        <path d="M64.988 1.227a1.323 1.323 0 0 0-.044-.22 1.467 1.467 0 0 0-.093-.23c-.02-.04-.027-.084-.051-.124-.016-.025-.041-.042-.06-.066a1.466 1.466 0 0 0-.16-.18 1.381 1.381 0 0 0-.182-.158c-.024-.017-.04-.041-.063-.055-.04-.024-.084-.03-.125-.05a1.47 1.47 0 0 0-.236-.095 1.487 1.487 0 0 0-.207-.036A1.45 1.45 0 0 0 63.519 0a1.27 1.27 0 0 0-.229.039c-.048.01-.097.007-.145.024L.957 21.264a1.413 1.413 0 0 0-.05 2.656l29.055 11.164 12.555 29.064c.225.518.736.852 1.297.852l.071-.001a1.414 1.414 0 0 0 1.276-.983L64.948 1.83c.014-.044.01-.09.019-.134a1.336 1.336 0 0 0 .02-.468zM5.56 22.679L58.303 4.698l-27.63 27.63-25.113-9.65zm38.052 36.878l-10.91-25.26 27.79-27.791-16.88 53.051z"/>
        <path d="M21.597 43.403a1.373 1.373 0 0 0-1.944 0L.403 62.653A1.373 1.373 0 0 0 1.375 65c.352 0 .704-.135.972-.403l19.25-19.25a1.373 1.373 0 0 0 0-1.944zM25.534 52.424l-10.11 10.11A1.443 1.443 0 0 0 16.444 65c.37 0 .74-.142 1.022-.423l10.11-10.111a1.443 1.443 0 0 0 0-2.042 1.443 1.443 0 0 0-2.042 0zM1.445 50c.37 0 .74-.142 1.02-.423l10.111-10.111a1.443 1.443 0 0 0 0-2.042 1.443 1.443 0 0 0-2.042 0L.424 47.534A1.443 1.443 0 0 0 1.444 50z"/>
    </g>
</svg>
